# Blender 4.4.0
# www.blender.org
mtllib Sphere.mtl
o 球
v 0.000000 0.382683 -0.923880
v 0.000000 0.000000 -1.000000
v 0.000000 -0.382683 -0.923880
v 0.000000 -0.923880 -0.382683
v 0.146447 0.923880 -0.353553
v 0.270598 0.707107 -0.653281
v 0.353553 0.382683 -0.853553
v 0.382683 0.000000 -0.923880
v 0.353553 -0.382683 -0.853553
v 0.270598 -0.707107 -0.653281
v 0.146447 -0.923880 -0.353553
v 0.270598 0.923880 -0.270598
v 0.500000 0.707107 -0.500000
v 0.653282 0.382683 -0.653281
v 0.707107 0.000000 -0.707107
v 0.653282 -0.382683 -0.653281
v 0.500000 -0.707107 -0.500000
v 0.270598 -0.923880 -0.270598
v 0.353553 0.923880 -0.146447
v 0.653281 0.707107 -0.270598
v 0.853553 0.382683 -0.353553
v 0.923880 0.000000 -0.382683
v 0.853553 -0.382683 -0.353553
v 0.653281 -0.707107 -0.270598
v 0.353553 -0.923880 -0.146447
v 0.382683 0.923880 0.000000
v 0.707107 0.707107 0.000000
v 0.923880 0.382683 0.000000
v 1.000000 0.000000 0.000000
v 0.923880 -0.382683 0.000000
v 0.707107 -0.707107 0.000000
v 0.382683 -0.923880 0.000000
v 0.353553 0.923880 0.146447
v 0.653281 0.707107 0.270598
v 0.853553 0.382683 0.353554
v 0.923879 0.000000 0.382684
v 0.853553 -0.382683 0.353554
v 0.653281 -0.707107 0.270598
v 0.353553 -0.923880 0.146447
v 0.270598 0.923880 0.270598
v 0.500000 0.707107 0.500000
v 0.653281 0.382683 0.653282
v 0.707107 0.000000 0.707107
v 0.653281 -0.382683 0.653282
v 0.500000 -0.707107 0.500000
v 0.270598 -0.923880 0.270598
v 0.146447 0.923880 0.353553
v 0.270598 0.707107 0.653281
v 0.353553 0.382683 0.853553
v 0.382683 0.000000 0.923880
v 0.353553 -0.382683 0.853553
v 0.270598 -0.707107 0.653281
v 0.146447 -0.923880 0.353553
v -0.000000 0.923880 0.382683
v -0.000000 0.707107 0.707107
v -0.000000 0.382683 0.923879
v -0.000000 0.000000 1.000000
v -0.000000 -0.382683 0.923879
v -0.000000 -0.707107 0.707107
v -0.000000 -0.923880 0.382683
v 0.000000 -1.000000 0.000000
v 0.000000 1.000000 0.000000
v -0.146447 0.923880 0.353553
v -0.270598 0.707107 0.653281
v -0.353554 0.382683 0.853553
v -0.382684 0.000000 0.923879
v -0.353554 -0.382683 0.853553
v -0.270598 -0.707107 0.653281
v -0.146447 -0.923880 0.353553
v -0.270598 0.923880 0.270598
v -0.500000 0.707107 0.500000
v -0.653282 0.382683 0.653281
v -0.707107 0.000000 0.707106
v -0.653282 -0.382683 0.653281
v -0.500000 -0.707107 0.500000
v -0.270598 -0.923880 0.270598
v -0.353553 0.923880 0.146446
v -0.653281 0.707107 0.270598
v -0.853553 0.382683 0.353553
v -0.923880 0.000000 0.382683
v -0.853553 -0.382683 0.353553
v -0.653281 -0.707107 0.270598
v -0.353553 -0.923880 0.146446
v -0.382683 0.923880 -0.000000
v -0.707107 0.707107 -0.000000
v -0.923879 0.382683 -0.000000
v -1.000000 0.000000 -0.000001
v -0.923879 -0.382683 -0.000000
v -0.707107 -0.707107 -0.000000
v -0.382683 -0.923880 -0.000000
v -0.353553 0.923880 -0.146447
v -0.653281 0.707107 -0.270598
v -0.853553 0.382683 -0.353554
v -0.923879 0.000000 -0.382684
v -0.853553 -0.382683 -0.353554
v -0.653281 -0.707107 -0.270598
v -0.353553 -0.923880 -0.146447
v -0.270598 0.923880 -0.270598
v -0.500000 0.707107 -0.500000
v -0.653281 0.382683 -0.653282
v -0.707106 0.000000 -0.707107
v -0.653281 -0.382683 -0.653282
v -0.500000 -0.707107 -0.500000
v -0.270598 -0.923880 -0.270598
v -0.146446 0.923880 -0.353554
v -0.270598 0.707107 -0.653281
v -0.353553 0.382683 -0.853553
v -0.382683 0.000000 -0.923880
v -0.353553 -0.382683 -0.853553
v -0.270598 -0.707107 -0.653281
v -0.146446 -0.923880 -0.353554
v 0.000000 0.923880 -0.382683
v 0.000000 0.707107 -0.707107
v 0.000000 -0.707107 -0.707107
vn 0.1632 -0.5481 -0.8203
vn 0.1915 0.1915 -0.9626
vn 0.1098 0.8264 -0.5522
vn 0.1098 -0.8264 -0.5522
vn 0.1915 -0.1915 -0.9626
vn 0.1632 0.5481 -0.8203
vn 0.0388 0.9800 -0.1949
vn 0.0388 -0.9800 -0.1949
vn 0.3128 -0.8264 -0.4681
vn 0.5453 -0.1915 -0.8161
vn 0.4647 0.5481 -0.6954
vn 0.1104 0.9800 -0.1653
vn 0.1104 -0.9800 -0.1653
vn 0.4647 -0.5481 -0.6954
vn 0.5453 0.1915 -0.8161
vn 0.3128 0.8264 -0.4681
vn 0.6954 0.5481 -0.4647
vn 0.1653 0.9800 -0.1104
vn 0.1653 -0.9800 -0.1104
vn 0.6954 -0.5481 -0.4647
vn 0.8161 0.1915 -0.5453
vn 0.4681 0.8264 -0.3128
vn 0.4681 -0.8264 -0.3128
vn 0.8161 -0.1915 -0.5453
vn 0.1949 -0.9800 -0.0388
vn 0.8203 -0.5481 -0.1632
vn 0.9626 0.1915 -0.1915
vn 0.5522 0.8264 -0.1098
vn 0.5522 -0.8264 -0.1098
vn 0.9626 -0.1915 -0.1915
vn 0.8203 0.5481 -0.1632
vn 0.1949 0.9800 -0.0388
vn 0.5522 0.8264 0.1098
vn 0.5522 -0.8264 0.1098
vn 0.9626 -0.1915 0.1915
vn 0.8203 0.5481 0.1632
vn 0.1949 0.9800 0.0388
vn 0.1949 -0.9800 0.0388
vn 0.8203 -0.5481 0.1632
vn 0.9626 0.1915 0.1915
vn 0.4681 -0.8264 0.3128
vn 0.8161 -0.1915 0.5453
vn 0.6954 0.5481 0.4647
vn 0.1653 0.9800 0.1104
vn 0.1653 -0.9800 0.1104
vn 0.6954 -0.5481 0.4647
vn 0.8161 0.1915 0.5453
vn 0.4681 0.8264 0.3128
vn 0.1104 0.9800 0.1653
vn 0.1104 -0.9800 0.1653
vn 0.4647 -0.5481 0.6954
vn 0.5453 0.1915 0.8161
vn 0.3128 0.8264 0.4681
vn 0.3128 -0.8264 0.4681
vn 0.5453 -0.1915 0.8161
vn 0.4647 0.5481 0.6954
vn 0.1632 -0.5481 0.8203
vn 0.1915 0.1915 0.9626
vn 0.1098 0.8264 0.5522
vn 0.1098 -0.8264 0.5522
vn 0.1915 -0.1915 0.9626
vn 0.1632 0.5481 0.8203
vn 0.0388 0.9800 0.1949
vn 0.0388 -0.9800 0.1949
vn -0.1098 -0.8264 0.5522
vn -0.1915 -0.1915 0.9626
vn -0.1632 0.5481 0.8203
vn -0.0388 0.9800 0.1949
vn -0.0388 -0.9800 0.1949
vn -0.1632 -0.5481 0.8203
vn -0.1915 0.1915 0.9626
vn -0.1098 0.8264 0.5522
vn -0.5453 -0.1915 0.8161
vn -0.4647 0.5481 0.6954
vn -0.1104 0.9800 0.1653
vn -0.1104 -0.9800 0.1653
vn -0.4647 -0.5481 0.6954
vn -0.5453 0.1915 0.8161
vn -0.3128 0.8264 0.4681
vn -0.3128 -0.8264 0.4681
vn -0.1653 -0.9800 0.1104
vn -0.6954 -0.5481 0.4647
vn -0.8161 0.1915 0.5453
vn -0.4681 0.8264 0.3128
vn -0.4681 -0.8264 0.3128
vn -0.8161 -0.1915 0.5453
vn -0.6954 0.5481 0.4647
vn -0.1653 0.9800 0.1104
vn -0.9626 0.1915 0.1915
vn -0.5522 0.8264 0.1098
vn -0.5522 -0.8264 0.1098
vn -0.9626 -0.1915 0.1915
vn -0.8203 0.5481 0.1632
vn -0.1949 0.9800 0.0388
vn -0.1949 -0.9800 0.0388
vn -0.8203 -0.5481 0.1632
vn -0.5522 -0.8264 -0.1098
vn -0.9626 -0.1915 -0.1915
vn -0.8203 0.5481 -0.1632
vn -0.1949 0.9800 -0.0388
vn -0.1949 -0.9800 -0.0388
vn -0.8203 -0.5481 -0.1632
vn -0.9626 0.1915 -0.1915
vn -0.5522 0.8264 -0.1098
vn -0.6954 0.5481 -0.4647
vn -0.1653 0.9800 -0.1104
vn -0.1653 -0.9800 -0.1104
vn -0.6954 -0.5481 -0.4647
vn -0.8161 0.1915 -0.5453
vn -0.4681 0.8264 -0.3128
vn -0.4681 -0.8264 -0.3128
vn -0.8161 -0.1915 -0.5453
vn -0.1104 -0.9800 -0.1653
vn -0.4647 -0.5481 -0.6954
vn -0.5453 0.1915 -0.8161
vn -0.3128 0.8264 -0.4681
vn -0.3128 -0.8264 -0.4681
vn -0.5453 -0.1915 -0.8161
vn -0.4647 0.5481 -0.6954
vn -0.1104 0.9800 -0.1653
vn -0.1098 0.8264 -0.5522
vn -0.1098 -0.8264 -0.5522
vn -0.1915 -0.1915 -0.9626
vn -0.1632 0.5481 -0.8203
vn -0.0388 0.9800 -0.1949
vn -0.0388 -0.9800 -0.1949
vn -0.1632 -0.5481 -0.8203
vn -0.1915 0.1915 -0.9626
vt 0.750000 0.250000
vt 0.750000 0.375000
vt 0.687500 0.375000
vt 0.687500 0.250000
vt 0.750000 0.500000
vt 0.750000 0.625000
vt 0.687500 0.625000
vt 0.687500 0.500000
vt 0.750000 0.750000
vt 0.750000 0.875000
vt 0.687500 0.875000
vt 0.687500 0.750000
vt 0.750000 0.125000
vt 0.687500 0.125000
vt 0.718750 1.000000
vt 0.718750 0.000000
vt 0.625000 0.250000
vt 0.625000 0.125000
vt 0.625000 0.500000
vt 0.625000 0.375000
vt 0.625000 0.750000
vt 0.625000 0.625000
vt 0.656250 1.000000
vt 0.625000 0.875000
vt 0.656250 0.000000
vt 0.562500 0.750000
vt 0.562500 0.625000
vt 0.593750 1.000000
vt 0.562500 0.875000
vt 0.593750 0.000000
vt 0.562500 0.125000
vt 0.562500 0.375000
vt 0.562500 0.250000
vt 0.562500 0.500000
vt 0.531250 0.000000
vt 0.500000 0.125000
vt 0.500000 0.375000
vt 0.500000 0.250000
vt 0.500000 0.625000
vt 0.500000 0.500000
vt 0.500000 0.875000
vt 0.500000 0.750000
vt 0.531250 1.000000
vt 0.437500 0.875000
vt 0.437500 0.750000
vt 0.437500 0.250000
vt 0.437500 0.125000
vt 0.437500 0.500000
vt 0.437500 0.375000
vt 0.437500 0.625000
vt 0.468750 1.000000
vt 0.468750 0.000000
vt 0.375000 0.250000
vt 0.375000 0.125000
vt 0.375000 0.500000
vt 0.375000 0.375000
vt 0.375000 0.750000
vt 0.375000 0.625000
vt 0.406250 1.000000
vt 0.375000 0.875000
vt 0.406250 0.000000
vt 0.343750 1.000000
vt 0.312500 0.875000
vt 0.343750 0.000000
vt 0.312500 0.125000
vt 0.312500 0.375000
vt 0.312500 0.250000
vt 0.312500 0.625000
vt 0.312500 0.500000
vt 0.312500 0.750000
vt 0.250000 0.375000
vt 0.250000 0.250000
vt 0.250000 0.625000
vt 0.250000 0.500000
vt 0.250000 0.875000
vt 0.250000 0.750000
vt 0.250000 0.125000
vt 0.281250 1.000000
vt 0.281250 0.000000
vt 0.187500 0.250000
vt 0.187500 0.125000
vt 0.187500 0.500000
vt 0.187500 0.375000
vt 0.187500 0.750000
vt 0.187500 0.625000
vt 0.218750 1.000000
vt 0.187500 0.875000
vt 0.218750 0.000000
vt 0.125000 0.500000
vt 0.125000 0.375000
vt 0.125000 0.750000
vt 0.125000 0.625000
vt 0.156250 1.000000
vt 0.125000 0.875000
vt 0.156250 0.000000
vt 0.125000 0.125000
vt 0.125000 0.250000
vt 0.093750 0.000000
vt 0.062500 0.125000
vt 0.062500 0.375000
vt 0.062500 0.250000
vt 0.062500 0.625000
vt 0.062500 0.500000
vt 0.062500 0.875000
vt 0.062500 0.750000
vt 0.093750 1.000000
vt 0.000000 0.625000
vt 0.000000 0.500000
vt 0.000000 0.875000
vt 0.000000 0.750000
vt 0.000000 0.250000
vt 0.000000 0.125000
vt 0.000000 0.375000
vt 0.031250 1.000000
vt 0.031250 0.000000
vt 1.000000 0.125000
vt 1.000000 0.250000
vt 0.937500 0.250000
vt 0.937500 0.125000
vt 1.000000 0.375000
vt 1.000000 0.500000
vt 0.937500 0.500000
vt 0.937500 0.375000
vt 1.000000 0.625000
vt 1.000000 0.750000
vt 0.937500 0.750000
vt 0.937500 0.625000
vt 1.000000 0.875000
vt 0.968750 1.000000
vt 0.937500 0.875000
vt 0.968750 0.000000
vt 0.875000 0.750000
vt 0.875000 0.625000
vt 0.906250 1.000000
vt 0.875000 0.875000
vt 0.906250 0.000000
vt 0.875000 0.125000
vt 0.875000 0.375000
vt 0.875000 0.250000
vt 0.875000 0.500000
vt 0.843750 0.000000
vt 0.812500 0.125000
vt 0.812500 0.375000
vt 0.812500 0.250000
vt 0.812500 0.625000
vt 0.812500 0.500000
vt 0.812500 0.875000
vt 0.812500 0.750000
vt 0.843750 1.000000
vt 0.781250 1.000000
vt 0.781250 0.000000
s 0
f 114/1/1 3/2/1 9/3/1 10/4/1
f 2/5/2 1/6/2 7/7/2 8/8/2
f 113/9/3 112/10/3 5/11/3 6/12/3
f 4/13/4 114/1/4 10/4/4 11/14/4
f 3/2/5 2/5/5 8/8/5 9/3/5
f 1/6/6 113/9/6 6/12/6 7/7/6
f 112/10/7 62/15/7 5/11/7
f 61/16/8 4/13/8 11/14/8
f 11/14/9 10/4/9 17/17/9 18/18/9
f 9/3/10 8/8/10 15/19/10 16/20/10
f 7/7/11 6/12/11 13/21/11 14/22/11
f 5/11/12 62/23/12 12/24/12
f 61/25/13 11/14/13 18/18/13
f 10/4/14 9/3/14 16/20/14 17/17/14
f 8/8/15 7/7/15 14/22/15 15/19/15
f 6/12/16 5/11/16 12/24/16 13/21/16
f 14/22/17 13/21/17 20/26/17 21/27/17
f 12/24/18 62/28/18 19/29/18
f 61/30/19 18/18/19 25/31/19
f 17/17/20 16/20/20 23/32/20 24/33/20
f 15/19/21 14/22/21 21/27/21 22/34/21
f 13/21/22 12/24/22 19/29/22 20/26/22
f 18/18/23 17/17/23 24/33/23 25/31/23
f 16/20/24 15/19/24 22/34/24 23/32/24
f 61/35/25 25/31/25 32/36/25
f 24/33/26 23/32/26 30/37/26 31/38/26
f 22/34/27 21/27/27 28/39/27 29/40/27
f 20/26/28 19/29/28 26/41/28 27/42/28
f 25/31/29 24/33/29 31/38/29 32/36/29
f 23/32/30 22/34/30 29/40/30 30/37/30
f 21/27/31 20/26/31 27/42/31 28/39/31
f 19/29/32 62/43/32 26/41/32
f 27/42/33 26/41/33 33/44/33 34/45/33
f 32/36/34 31/38/34 38/46/34 39/47/34
f 30/37/35 29/40/35 36/48/35 37/49/35
f 28/39/36 27/42/36 34/45/36 35/50/36
f 26/41/37 62/51/37 33/44/37
f 61/52/38 32/36/38 39/47/38
f 31/38/39 30/37/39 37/49/39 38/46/39
f 29/40/40 28/39/40 35/50/40 36/48/40
f 39/47/41 38/46/41 45/53/41 46/54/41
f 37/49/42 36/48/42 43/55/42 44/56/42
f 35/50/43 34/45/43 41/57/43 42/58/43
f 33/44/44 62/59/44 40/60/44
f 61/61/45 39/47/45 46/54/45
f 38/46/46 37/49/46 44/56/46 45/53/46
f 36/48/47 35/50/47 42/58/47 43/55/47
f 34/45/48 33/44/48 40/60/48 41/57/48
f 40/60/49 62/62/49 47/63/49
f 61/64/50 46/54/50 53/65/50
f 45/53/51 44/56/51 51/66/51 52/67/51
f 43/55/52 42/58/52 49/68/52 50/69/52
f 41/57/53 40/60/53 47/63/53 48/70/53
f 46/54/54 45/53/54 52/67/54 53/65/54
f 44/56/55 43/55/55 50/69/55 51/66/55
f 42/58/56 41/57/56 48/70/56 49/68/56
f 52/67/57 51/66/57 58/71/57 59/72/57
f 50/69/58 49/68/58 56/73/58 57/74/58
f 48/70/59 47/63/59 54/75/59 55/76/59
f 53/65/60 52/67/60 59/72/60 60/77/60
f 51/66/61 50/69/61 57/74/61 58/71/61
f 49/68/62 48/70/62 55/76/62 56/73/62
f 47/63/63 62/78/63 54/75/63
f 61/79/64 53/65/64 60/77/64
f 60/77/65 59/72/65 68/80/65 69/81/65
f 58/71/66 57/74/66 66/82/66 67/83/66
f 56/73/67 55/76/67 64/84/67 65/85/67
f 54/75/68 62/86/68 63/87/68
f 61/88/69 60/77/69 69/81/69
f 59/72/70 58/71/70 67/83/70 68/80/70
f 57/74/71 56/73/71 65/85/71 66/82/71
f 55/76/72 54/75/72 63/87/72 64/84/72
f 67/83/73 66/82/73 73/89/73 74/90/73
f 65/85/74 64/84/74 71/91/74 72/92/74
f 63/87/75 62/93/75 70/94/75
f 61/95/76 69/81/76 76/96/76
f 68/80/77 67/83/77 74/90/77 75/97/77
f 66/82/78 65/85/78 72/92/78 73/89/78
f 64/84/79 63/87/79 70/94/79 71/91/79
f 69/81/80 68/80/80 75/97/80 76/96/80
f 61/98/81 76/96/81 83/99/81
f 75/97/82 74/90/82 81/100/82 82/101/82
f 73/89/83 72/92/83 79/102/83 80/103/83
f 71/91/84 70/94/84 77/104/84 78/105/84
f 76/96/85 75/97/85 82/101/85 83/99/85
f 74/90/86 73/89/86 80/103/86 81/100/86
f 72/92/87 71/91/87 78/105/87 79/102/87
f 70/94/88 62/106/88 77/104/88
f 80/103/89 79/102/89 86/107/89 87/108/89
f 78/105/90 77/104/90 84/109/90 85/110/90
f 83/99/91 82/101/91 89/111/91 90/112/91
f 81/100/92 80/103/92 87/108/92 88/113/92
f 79/102/93 78/105/93 85/110/93 86/107/93
f 77/104/94 62/114/94 84/109/94
f 61/115/95 83/99/95 90/112/95
f 82/101/96 81/100/96 88/113/96 89/111/96
f 90/116/97 89/117/97 96/118/97 97/119/97
f 88/120/98 87/121/98 94/122/98 95/123/98
f 86/124/99 85/125/99 92/126/99 93/127/99
f 84/128/100 62/129/100 91/130/100
f 61/131/101 90/116/101 97/119/101
f 89/117/102 88/120/102 95/123/102 96/118/102
f 87/121/103 86/124/103 93/127/103 94/122/103
f 85/125/104 84/128/104 91/130/104 92/126/104
f 93/127/105 92/126/105 99/132/105 100/133/105
f 91/130/106 62/134/106 98/135/106
f 61/136/107 97/119/107 104/137/107
f 96/118/108 95/123/108 102/138/108 103/139/108
f 94/122/109 93/127/109 100/133/109 101/140/109
f 92/126/110 91/130/110 98/135/110 99/132/110
f 97/119/111 96/118/111 103/139/111 104/137/111
f 95/123/112 94/122/112 101/140/112 102/138/112
f 61/141/113 104/137/113 111/142/113
f 103/139/114 102/138/114 109/143/114 110/144/114
f 101/140/115 100/133/115 107/145/115 108/146/115
f 99/132/116 98/135/116 105/147/116 106/148/116
f 104/137/117 103/139/117 110/144/117 111/142/117
f 102/138/118 101/140/118 108/146/118 109/143/118
f 100/133/119 99/132/119 106/148/119 107/145/119
f 98/135/120 62/149/120 105/147/120
f 106/148/121 105/147/121 112/10/121 113/9/121
f 111/142/122 110/144/122 114/1/122 4/13/122
f 109/143/123 108/146/123 2/5/123 3/2/123
f 107/145/124 106/148/124 113/9/124 1/6/124
f 105/147/125 62/150/125 112/10/125
f 61/151/126 111/142/126 4/13/126
f 110/144/127 109/143/127 3/2/127 114/1/127
f 108/146/128 107/145/128 1/6/128 2/5/128
